<svg width="206" height="28" viewBox="0 0 206 28" fill="none" xmlns="http://www.w3.org/2000/svg">
<path fill-rule="evenodd" clip-rule="evenodd" d="M3.6911 3.6918C2.78604 2.01591 4.02458 0 5.95876 0H30.903C32.7871 0 33.993 1.96687 33.1093 3.5983L20.6065 26.6645C19.6407 28.4477 17.0336 28.4444 16.0712 26.6593L13.3366 21.5839L11.157 25.6066C11.0155 25.8685 10.8039 26.0876 10.5449 26.2405C10.2859 26.3933 9.98935 26.4741 9.68705 26.4741C9.38475 26.4741 9.08816 26.3933 8.82916 26.2405C8.57017 26.0876 8.35856 25.8685 8.21708 25.6066L0.191576 10.7145C0.0581115 10.466 -0.00763456 10.1879 0.0007055 9.90717C0.00904556 9.62646 0.0911898 9.35261 0.239181 9.11215C0.387173 8.87169 0.595995 8.67278 0.845423 8.53468C1.09485 8.39657 1.37643 8.32397 1.66288 8.32388H6.18619L3.6911 3.6918ZM14.3071 19.8034L19.6981 9.85526C19.7853 9.69435 19.8286 9.51405 19.8237 9.33188C19.8188 9.14972 19.766 8.97189 19.6702 8.81569C19.5745 8.6595 19.4391 8.53025 19.2774 8.44051C19.1156 8.35078 18.9329 8.30362 18.747 8.30361H7.98698C7.79633 8.30416 7.60907 8.35297 7.44331 8.44531C7.27755 8.53764 7.13893 8.67037 7.04085 8.83065C6.94278 8.99092 6.88858 9.17331 6.8835 9.36015C6.87843 9.54699 6.92265 9.73195 7.01188 9.89711L12.3509 19.8034C12.4451 19.9776 12.5859 20.1233 12.7583 20.2249C12.9306 20.3265 13.1279 20.3802 13.329 20.3802C13.5301 20.3802 13.7274 20.3265 13.8997 20.2249C14.072 20.1233 14.2128 19.9776 14.3071 19.8034ZM54.706 10.7007H57.4345C57.5195 10.7045 57.6026 10.6752 57.6656 10.6192C57.7287 10.5633 57.7667 10.4852 57.7713 10.4019V8.77964C57.7669 8.69613 57.7288 8.61777 57.6656 8.56165C57.6024 8.50554 57.5191 8.47624 57.4339 8.48016H49.2143C49.173 8.47849 49.1317 8.48498 49.093 8.49924C49.0543 8.51351 49.0189 8.53525 48.9889 8.56318C48.9589 8.59111 48.9349 8.62467 48.9184 8.66185C48.9019 8.69903 48.8932 8.73909 48.8928 8.77964V10.4013C48.8932 10.4418 48.9019 10.4819 48.9184 10.519C48.9349 10.5562 48.9589 10.5898 48.9889 10.6177C49.0189 10.6456 49.0543 10.6674 49.093 10.6816C49.1317 10.6959 49.173 10.7024 49.2143 10.7007H51.9588V19.8688C51.959 19.9523 51.9929 20.0324 52.0532 20.0914C52.1134 20.1505 52.1951 20.1838 52.2803 20.1839H54.3845C54.4697 20.1838 54.5514 20.1505 54.6117 20.0914C54.6719 20.0324 54.7058 19.9523 54.706 19.8688V10.7007ZM66.1937 20.1179C65.6314 20.1964 64.6857 20.3226 62.9509 20.3226C60.8787 20.3226 59.0479 19.8027 59.0479 16.9368V11.7057C59.0479 8.83979 60.8954 8.33565 62.9669 8.33565C64.701 8.33565 65.6314 8.46185 66.1937 8.54031C66.4184 8.5717 66.5151 8.65082 66.5151 8.85548V10.3221C66.515 10.4057 66.481 10.4857 66.4208 10.5448C66.3605 10.6039 66.2789 10.6371 66.1937 10.6373H62.8069C62.0519 10.6373 61.7791 10.889 61.7791 11.7084V13.1417H66.0656C66.1508 13.1418 66.2325 13.1751 66.2927 13.2342C66.353 13.2932 66.3869 13.3733 66.3871 13.4568V14.9529C66.3869 15.0364 66.353 15.1165 66.2927 15.1756C66.2325 15.2346 66.1508 15.2679 66.0656 15.2681H61.7791V16.9374C61.7791 17.7561 62.0519 18.0085 62.8069 18.0085H66.1937C66.2789 18.0087 66.3605 18.0419 66.4208 18.101C66.481 18.1601 66.515 18.2401 66.5151 18.3237V19.7883C66.5151 19.9917 66.4184 20.0865 66.1937 20.1179ZM75.7592 20.1807H78.313C78.4417 20.1807 78.5224 20.1179 78.5217 20.0263C78.5187 19.9708 78.5022 19.9168 78.4737 19.8688L74.8255 14.2134L78.3236 8.77832C78.3415 8.74949 78.3524 8.71707 78.3557 8.68351C78.3499 8.62565 78.3217 8.57216 78.2769 8.53408C78.2321 8.496 78.1741 8.47622 78.1149 8.47884H75.7378C75.5624 8.47884 75.4177 8.63643 75.3377 8.77832L73.3488 11.9594L71.2939 8.77832C71.1992 8.63643 71.0705 8.47884 70.8937 8.47884H68.3079C68.2487 8.47622 68.1907 8.496 68.1459 8.53408C68.1011 8.57216 68.0729 8.62565 68.0672 8.68351C68.0704 8.71707 68.0814 8.74949 68.0992 8.77832L71.6147 14.18L68.1352 19.8688C68.1172 19.9032 68.1063 19.9407 68.1032 19.9793C68.1032 20.0891 68.1832 20.1839 68.3439 20.1839H70.721C70.8964 20.1839 71.0084 20.0577 71.1212 19.8688L73.1274 16.498L75.3417 19.9446C75.4537 20.1153 75.5504 20.1807 75.7592 20.1807ZM45.0431 8.51155C44.9858 8.51169 44.9302 8.53132 44.886 8.56708C44.8417 8.60285 44.8114 8.65254 44.8003 8.70771L42.4687 17.1683C42.4366 17.3415 42.3886 17.4043 42.2439 17.4043C42.0992 17.4043 42.0511 17.3389 42.0191 17.1683L39.6848 8.70575C39.6737 8.65058 39.6434 8.60088 39.5992 8.56512C39.5549 8.52935 39.4994 8.50973 39.442 8.50958H37.147C37.1097 8.50962 37.0729 8.51792 37.0393 8.53385C37.0057 8.54978 36.9762 8.57293 36.9529 8.60159C36.9297 8.63025 36.9134 8.66367 36.9052 8.69936C36.897 8.73506 36.8971 8.77211 36.9056 8.80775C36.9056 8.80775 39.7535 18.5107 39.7848 18.6061C40.165 19.7622 41.0874 20.3147 42.2612 20.3147C43.3791 20.3147 44.3548 19.736 44.7363 18.6094C44.7817 18.4786 47.5662 8.8071 47.5662 8.8071C47.5745 8.7715 47.5745 8.73452 47.5663 8.69891C47.558 8.6633 47.5417 8.62996 47.5185 8.60138C47.4953 8.57281 47.4659 8.54971 47.4323 8.53382C47.3988 8.51793 47.362 8.50965 47.3248 8.50958L45.0431 8.51155Z" fill="white"/>
<line x1="90.0215" y1="28" x2="90.0215" y2="2.18556e-08" stroke="white"/>
<path d="M109.561 20.22C112.641 20.22 115.041 18.36 115.461 14.92L113.701 14.5C113.421 17.3 111.801 18.64 109.601 18.64C106.981 18.64 105.241 16.62 105.241 13.22C105.241 9.8 106.961 7.8 109.601 7.8C111.801 7.8 113.221 9.02 113.661 11.54L115.421 11.22C114.861 8.04 112.661 6.22 109.721 6.22C106.041 6.22 103.461 8.7 103.461 13.22C103.461 17.72 106.001 20.22 109.561 20.22ZM121.879 20.2C124.539 20.2 126.639 18.42 126.639 15.06C126.639 11.7 124.539 9.92 121.879 9.92C119.219 9.92 117.099 11.7 117.099 15.06C117.099 18.42 119.219 20.2 121.879 20.2ZM121.879 18.72C120.039 18.72 118.779 17.4 118.779 15.06C118.779 12.72 120.039 11.42 121.879 11.42C123.719 11.42 124.939 12.72 124.939 15.06C124.939 17.4 123.719 18.72 121.879 18.72ZM130.816 20V13.68C130.816 12.16 131.676 11.38 133.016 11.38C134.356 11.38 135.216 12.16 135.216 13.68V19.98H136.816V13.84C136.816 12.28 137.676 11.38 138.996 11.38C140.336 11.38 141.196 12.22 141.196 13.56V19.98H142.796V13.24C142.796 11.06 141.596 9.9 139.716 9.9C137.976 9.9 137.016 10.9 136.796 12.26H136.776C136.556 10.74 135.396 9.9 133.736 9.9C132.056 9.9 131.116 10.82 130.836 12.16H130.816V10.14H129.236V20H130.816ZM147.105 20V13.68C147.105 12.16 147.965 11.38 149.305 11.38C150.645 11.38 151.505 12.16 151.505 13.68V19.98H153.105V13.84C153.105 12.28 153.965 11.38 155.285 11.38C156.625 11.38 157.485 12.22 157.485 13.56V19.98H159.085V13.24C159.085 11.06 157.885 9.9 156.005 9.9C154.265 9.9 153.305 10.9 153.085 12.26H153.065C152.845 10.74 151.685 9.9 150.025 9.9C148.345 9.9 147.405 10.82 147.125 12.16H147.105V10.14H145.525V20H147.105ZM168.094 10.14V16.2C168.094 17.78 167.234 18.74 165.534 18.74C163.954 18.74 163.194 17.78 163.194 16.2V10.14H161.594V16.22C161.594 18.96 162.854 20.24 165.014 20.24C166.654 20.24 167.734 19.34 168.114 17.62H168.174V20H169.694V10.14H168.094ZM174.234 20V13.94C174.234 12.36 175.094 11.4 176.814 11.4C178.374 11.4 179.154 12.36 179.154 13.94V20H180.734V13.92C180.734 11.18 179.474 9.9 177.314 9.9C175.674 9.9 174.614 10.8 174.214 12.52H174.154V10.14H172.654V20H174.234ZM184.434 8.6C185.134 8.6 185.574 8.16 185.574 7.44C185.574 6.72 185.134 6.28 184.434 6.28C183.734 6.28 183.294 6.72 183.294 7.44C183.294 8.16 183.734 8.6 184.434 8.6ZM185.214 20V10.14H183.634V20H185.214ZM191.897 18.74C191.037 18.74 190.617 18.48 190.617 17.54V11.52H193.417V10.14H190.617V7.38H189.597C189.397 9.3 188.837 10.12 187.377 10.56V11.52H189.017V17.9C189.017 19.66 189.997 20.2 191.497 20.2C192.177 20.2 192.837 20.1 193.337 19.96L193.557 18.48C193.137 18.62 192.517 18.74 191.897 18.74ZM199.557 18.24L196.477 10.14H194.757L198.677 20.04L197.117 23.74H198.877L204.397 10.14H202.617L199.557 18.24Z" fill="white"/>
</svg>
